<mxfile host="Electron" agent="Mozilla/5.0 (X11; Linux x86_64) AppleWebKit/537.36 (KHTML, like Gecko) draw.io/27.0.9 Chrome/134.0.6998.205 Electron/35.4.0 Safari/537.36" version="27.0.9">
  <diagram name="Page-1" id="13e1069c-82ec-6db2-03f1-153e76fe0fe0">
    <mxGraphModel dx="1996" dy="1208" grid="1" gridSize="10" guides="1" tooltips="1" connect="1" arrows="1" fold="1" page="1" pageScale="1" pageWidth="1169" pageHeight="827" background="none" math="0" shadow="0">
      <root>
        <mxCell id="0" />
        <mxCell id="1" parent="0" />
        <mxCell id="7baba1c4bc27f4b0-4" value="id_mac_map: dict" style="shape=umlLifeline;perimeter=lifelinePerimeter;whiteSpace=wrap;html=1;container=1;collapsible=0;recursiveResize=0;outlineConnect=0;rounded=1;shadow=0;comic=0;labelBackgroundColor=none;strokeWidth=1;fontFamily=Verdana;fontSize=12;align=center;" parent="1" vertex="1">
          <mxGeometry x="530" y="160" width="130" height="641" as="geometry" />
        </mxCell>
        <mxCell id="7baba1c4bc27f4b0-16" value="" style="html=1;points=[];perimeter=orthogonalPerimeter;rounded=0;shadow=0;comic=0;labelBackgroundColor=none;strokeWidth=1;fontFamily=Verdana;fontSize=12;align=center;" parent="7baba1c4bc27f4b0-4" vertex="1">
          <mxGeometry x="60" y="111" width="10" height="509" as="geometry" />
        </mxCell>
        <mxCell id="7baba1c4bc27f4b0-2" value="in_q: asyncio.Queue" style="shape=umlLifeline;perimeter=lifelinePerimeter;whiteSpace=wrap;html=1;container=1;collapsible=0;recursiveResize=0;outlineConnect=0;rounded=1;shadow=0;comic=0;labelBackgroundColor=none;strokeWidth=1;fontFamily=Verdana;fontSize=12;align=center;" parent="1" vertex="1">
          <mxGeometry x="250" y="159" width="100" height="641" as="geometry" />
        </mxCell>
        <mxCell id="7baba1c4bc27f4b0-10" value="" style="html=1;points=[];perimeter=orthogonalPerimeter;rounded=0;shadow=0;comic=0;labelBackgroundColor=none;strokeWidth=1;fontFamily=Verdana;fontSize=12;align=center;" parent="7baba1c4bc27f4b0-2" vertex="1">
          <mxGeometry x="45" y="101" width="10" height="519" as="geometry" />
        </mxCell>
        <mxCell id="KM6-z8VT7eYoRs8P3cIo-2" value="message items" style="html=1;verticalAlign=bottom;endArrow=classic;labelBackgroundColor=none;fontFamily=Verdana;fontSize=12;edgeStyle=elbowEdgeStyle;elbow=vertical;startArrow=none;startFill=0;endFill=1;exitX=1.12;exitY=0.159;exitDx=0;exitDy=0;exitPerimeter=0;" parent="7baba1c4bc27f4b0-2" target="7baba1c4bc27f4b0-13" edge="1">
          <mxGeometry relative="1" as="geometry">
            <mxPoint x="55.00000000000006" y="161.41999999999996" as="sourcePoint" />
            <mxPoint x="190" y="161" as="targetPoint" />
            <Array as="points">
              <mxPoint x="203.8" y="161" />
            </Array>
          </mxGeometry>
        </mxCell>
        <mxCell id="n59Rol-DrolDZZfycq20-1" value="message" style="html=1;verticalAlign=bottom;endArrow=classic;labelBackgroundColor=none;fontFamily=Verdana;fontSize=12;edgeStyle=elbowEdgeStyle;elbow=vertical;startArrow=none;startFill=0;endFill=1;entryX=0.733;entryY=0.263;entryDx=0;entryDy=0;entryPerimeter=0;" parent="7baba1c4bc27f4b0-2" edge="1">
          <mxGeometry x="0.2107" relative="1" as="geometry">
            <mxPoint x="188.82999999999998" y="202.06" as="sourcePoint" />
            <mxPoint x="-88.84000000000007" y="201.99999999999994" as="targetPoint" />
            <Array as="points" />
            <mxPoint as="offset" />
          </mxGeometry>
        </mxCell>
        <mxCell id="7baba1c4bc27f4b0-6" value="outbound_q: asyncio.Queue" style="shape=umlLifeline;perimeter=lifelinePerimeter;whiteSpace=wrap;html=1;container=1;collapsible=0;recursiveResize=0;outlineConnect=0;rounded=1;shadow=0;comic=0;labelBackgroundColor=none;strokeWidth=1;fontFamily=Verdana;fontSize=12;align=center;" parent="1" vertex="1">
          <mxGeometry x="810" y="159" width="130" height="641" as="geometry" />
        </mxCell>
        <mxCell id="7baba1c4bc27f4b0-28" value="" style="html=1;points=[];perimeter=orthogonalPerimeter;rounded=0;shadow=0;comic=0;labelBackgroundColor=none;strokeWidth=1;fontFamily=Verdana;fontSize=12;align=center;" parent="7baba1c4bc27f4b0-6" vertex="1">
          <mxGeometry x="60" y="101" width="10" height="519" as="geometry" />
        </mxCell>
        <mxCell id="7baba1c4bc27f4b0-5" value="mac_queue_map: dict" style="shape=umlLifeline;perimeter=lifelinePerimeter;whiteSpace=wrap;html=1;container=1;collapsible=0;recursiveResize=0;outlineConnect=0;rounded=1;shadow=0;comic=0;labelBackgroundColor=none;strokeWidth=1;fontFamily=Verdana;fontSize=12;align=center;" parent="1" vertex="1">
          <mxGeometry x="680" y="159" width="100" height="640" as="geometry" />
        </mxCell>
        <mxCell id="7baba1c4bc27f4b0-19" value="" style="html=1;points=[];perimeter=orthogonalPerimeter;rounded=0;shadow=0;comic=0;labelBackgroundColor=none;strokeWidth=1;fontFamily=Verdana;fontSize=12;align=center;" parent="7baba1c4bc27f4b0-5" vertex="1">
          <mxGeometry x="45" y="101" width="10" height="519" as="geometry" />
        </mxCell>
        <mxCell id="n59Rol-DrolDZZfycq20-11" value="put(messsage)" style="html=1;verticalAlign=bottom;endArrow=block;labelBackgroundColor=none;fontFamily=Verdana;fontSize=12;edgeStyle=elbowEdgeStyle;elbow=vertical;entryX=0.05;entryY=0.845;entryDx=0;entryDy=0;entryPerimeter=0;exitX=0.8;exitY=0.763;exitDx=0;exitDy=0;exitPerimeter=0;" parent="7baba1c4bc27f4b0-5" edge="1">
          <mxGeometry x="-0.1846" relative="1" as="geometry">
            <mxPoint x="-522.5" y="599.9970000000001" as="sourcePoint" />
            <mxPoint x="337.5" y="599.9200000000001" as="targetPoint" />
            <mxPoint as="offset" />
            <Array as="points">
              <mxPoint x="-400.5" y="599.09" />
              <mxPoint x="-464.5" y="599.09" />
            </Array>
          </mxGeometry>
        </mxCell>
        <mxCell id="7baba1c4bc27f4b0-3" value="factory: Message.factory" style="shape=umlLifeline;perimeter=lifelinePerimeter;whiteSpace=wrap;html=1;container=1;collapsible=0;recursiveResize=0;outlineConnect=0;rounded=1;shadow=0;comic=0;labelBackgroundColor=none;strokeWidth=1;fontFamily=Verdana;fontSize=12;align=center;" parent="1" vertex="1">
          <mxGeometry x="380" y="159" width="120" height="641" as="geometry" />
        </mxCell>
        <mxCell id="7baba1c4bc27f4b0-13" value="" style="html=1;points=[];perimeter=orthogonalPerimeter;rounded=0;shadow=0;comic=0;labelBackgroundColor=none;strokeWidth=1;fontFamily=Verdana;fontSize=12;align=center;" parent="7baba1c4bc27f4b0-3" vertex="1">
          <mxGeometry x="55" y="142" width="10" height="69" as="geometry" />
        </mxCell>
        <mxCell id="n59Rol-DrolDZZfycq20-6" value="list_of_macs" style="html=1;verticalAlign=bottom;endArrow=block;labelBackgroundColor=none;fontFamily=Verdana;fontSize=12;edgeStyle=elbowEdgeStyle;elbow=vertical;entryX=1.19;entryY=0.2;entryDx=0;entryDy=0;entryPerimeter=0;" parent="7baba1c4bc27f4b0-3" edge="1">
          <mxGeometry x="-0.0232" relative="1" as="geometry">
            <mxPoint x="210" y="361.2" as="sourcePoint" />
            <mxPoint x="-218.10000000000014" y="360.99999999999994" as="targetPoint" />
            <mxPoint as="offset" />
            <Array as="points">
              <mxPoint x="80" y="361.2" />
              <mxPoint x="-97" y="361.26" />
              <mxPoint x="-33" y="361.26" />
            </Array>
          </mxGeometry>
        </mxCell>
        <mxCell id="n59Rol-DrolDZZfycq20-5" value="send_message(id)" style="html=1;verticalAlign=bottom;endArrow=block;labelBackgroundColor=none;fontFamily=Verdana;fontSize=12;edgeStyle=elbowEdgeStyle;elbow=vertical;exitX=0.076;exitY=0.472;exitDx=0;exitDy=0;exitPerimeter=0;" parent="7baba1c4bc27f4b0-3" edge="1">
          <mxGeometry x="-0.0232" relative="1" as="geometry">
            <mxPoint x="-220" y="320.15999999999997" as="sourcePoint" />
            <mxPoint x="210" y="320.15999999999997" as="targetPoint" />
            <mxPoint as="offset" />
            <Array as="points">
              <mxPoint x="-30" y="320.28" />
              <mxPoint x="-94" y="320.28" />
            </Array>
          </mxGeometry>
        </mxCell>
        <mxCell id="7baba1c4bc27f4b0-14" value="register_sender(id, mac)" style="html=1;verticalAlign=bottom;endArrow=block;labelBackgroundColor=none;fontFamily=Verdana;fontSize=12;edgeStyle=elbowEdgeStyle;elbow=vertical;exitX=1;exitY=0.476;exitDx=0;exitDy=0;exitPerimeter=0;" parent="7baba1c4bc27f4b0-3" edge="1">
          <mxGeometry x="-0.0232" relative="1" as="geometry">
            <mxPoint x="-220" y="281" as="sourcePoint" />
            <mxPoint x="210" y="281.24" as="targetPoint" />
            <mxPoint as="offset" />
            <Array as="points">
              <mxPoint x="-30" y="281.12" />
              <mxPoint x="-94" y="281.12" />
            </Array>
          </mxGeometry>
        </mxCell>
        <mxCell id="7baba1c4bc27f4b0-8" value="message_dispatcher: asyncio.Task" style="shape=umlLifeline;perimeter=lifelinePerimeter;whiteSpace=wrap;html=1;container=1;collapsible=0;recursiveResize=0;outlineConnect=0;rounded=1;shadow=0;comic=0;labelBackgroundColor=none;strokeWidth=1;fontFamily=Verdana;fontSize=12;align=center;" parent="1" vertex="1">
          <mxGeometry x="90" y="159" width="130" height="640" as="geometry" />
        </mxCell>
        <mxCell id="7baba1c4bc27f4b0-9" value="" style="html=1;points=[];perimeter=orthogonalPerimeter;rounded=0;shadow=0;comic=0;labelBackgroundColor=none;strokeWidth=1;fontFamily=Verdana;fontSize=12;align=center;" parent="7baba1c4bc27f4b0-8" vertex="1">
          <mxGeometry x="60" y="101" width="10" height="149" as="geometry" />
        </mxCell>
        <mxCell id="n59Rol-DrolDZZfycq20-4" value="" style="html=1;points=[];perimeter=orthogonalPerimeter;rounded=0;shadow=0;comic=0;labelBackgroundColor=none;strokeWidth=1;fontFamily=Verdana;fontSize=12;align=center;" parent="7baba1c4bc27f4b0-8" vertex="1">
          <mxGeometry x="60" y="271" width="10" height="29" as="geometry" />
        </mxCell>
        <mxCell id="n59Rol-DrolDZZfycq20-7" value="iterate(macs)" style="html=1;verticalAlign=bottom;endArrow=block;labelBackgroundColor=none;fontFamily=Verdana;fontSize=12;elbow=vertical;edgeStyle=orthogonalEdgeStyle;curved=1;entryX=1;entryY=0.286;entryPerimeter=0;exitX=1.038;exitY=0.345;exitPerimeter=0;" parent="7baba1c4bc27f4b0-8" edge="1">
          <mxGeometry x="0.1874" y="35" relative="1" as="geometry">
            <mxPoint x="75.41" y="401" as="sourcePoint" />
            <mxPoint x="80.02999999999989" y="438.9200000000001" as="targetPoint" />
            <Array as="points">
              <mxPoint x="130.0299999999999" y="400.9000000000001" />
              <mxPoint x="130.0299999999999" y="438.9000000000001" />
            </Array>
            <mxPoint as="offset" />
          </mxGeometry>
        </mxCell>
        <mxCell id="AuvZo8N8ENO6hJsPnM0U-2" value="" style="html=1;points=[];perimeter=orthogonalPerimeter;rounded=0;shadow=0;comic=0;labelBackgroundColor=none;strokeWidth=1;fontFamily=Verdana;fontSize=12;align=center;" parent="7baba1c4bc27f4b0-8" vertex="1">
          <mxGeometry x="60" y="310" width="10" height="260" as="geometry" />
        </mxCell>
        <mxCell id="AuvZo8N8ENO6hJsPnM0U-3" value="" style="html=1;points=[];perimeter=orthogonalPerimeter;rounded=0;shadow=0;comic=0;labelBackgroundColor=none;strokeWidth=1;fontFamily=Verdana;fontSize=12;align=center;" parent="7baba1c4bc27f4b0-8" vertex="1">
          <mxGeometry x="60" y="591" width="10" height="29" as="geometry" />
        </mxCell>
        <mxCell id="7baba1c4bc27f4b0-11" value="get()" style="html=1;verticalAlign=bottom;endArrow=classic;entryX=0;entryY=0;labelBackgroundColor=none;fontFamily=Verdana;fontSize=12;edgeStyle=elbowEdgeStyle;elbow=vertical;startArrow=none;startFill=0;endFill=1;" parent="1" edge="1">
          <mxGeometry relative="1" as="geometry">
            <mxPoint x="160" y="278" as="sourcePoint" />
            <mxPoint x="295.0000000000002" y="278.00000000000034" as="targetPoint" />
          </mxGeometry>
        </mxCell>
        <mxCell id="7baba1c4bc27f4b0-41" value="Contains all MAC addresses heard for sender with signal strength" style="shape=note;whiteSpace=wrap;html=1;size=14;verticalAlign=top;align=left;spacingTop=-6;rounded=0;shadow=0;comic=0;labelBackgroundColor=none;strokeWidth=1;fontFamily=Verdana;fontSize=12" parent="1" vertex="1">
          <mxGeometry x="539.5" y="91" width="111" height="60" as="geometry" />
        </mxCell>
        <mxCell id="KM6-z8VT7eYoRs8P3cIo-6" value="Message Dispatcher v0.0.3" style="text;strokeColor=none;fillColor=none;html=1;fontSize=24;fontStyle=1;verticalAlign=middle;align=center;" parent="1" vertex="1">
          <mxGeometry x="492" y="21" width="100" height="40" as="geometry" />
        </mxCell>
        <mxCell id="KM6-z8VT7eYoRs8P3cIo-8" value="Outbound queue:&lt;div&gt;one for each node&lt;/div&gt;" style="shape=note;whiteSpace=wrap;html=1;size=14;verticalAlign=top;align=left;spacingTop=-6;rounded=0;shadow=0;comic=0;labelBackgroundColor=none;strokeWidth=1;fontFamily=Verdana;fontSize=12" parent="1" vertex="1">
          <mxGeometry x="819.5" y="90" width="111" height="60" as="geometry" />
        </mxCell>
        <mxCell id="jYSj6DwHxoEdfqsT5sqR-3" value="unix_socket: asyncio.socket" style="shape=umlLifeline;perimeter=lifelinePerimeter;whiteSpace=wrap;html=1;container=1;collapsible=0;recursiveResize=0;outlineConnect=0;rounded=1;shadow=0;comic=0;labelBackgroundColor=none;strokeWidth=1;fontFamily=Verdana;fontSize=12;align=center;" parent="1" vertex="1">
          <mxGeometry x="957.5" y="160" width="130" height="640" as="geometry" />
        </mxCell>
        <mxCell id="n59Rol-DrolDZZfycq20-10" value="" style="html=1;points=[];perimeter=orthogonalPerimeter;rounded=0;shadow=0;comic=0;labelBackgroundColor=none;strokeWidth=1;fontFamily=Verdana;fontSize=12;align=center;" parent="jYSj6DwHxoEdfqsT5sqR-3" vertex="1">
          <mxGeometry x="60" y="90" width="10" height="530" as="geometry" />
        </mxCell>
        <mxCell id="jYSj6DwHxoEdfqsT5sqR-7" value="Message copied to permanent storage" style="shape=note;whiteSpace=wrap;html=1;size=14;verticalAlign=top;align=left;spacingTop=-6;rounded=0;shadow=0;comic=0;labelBackgroundColor=none;strokeWidth=1;fontFamily=Verdana;fontSize=12" parent="1" vertex="1">
          <mxGeometry x="957.5" y="91" width="111" height="60" as="geometry" />
        </mxCell>
        <mxCell id="n59Rol-DrolDZZfycq20-3" value="Contains the queue mapped to each MAC address" style="shape=note;whiteSpace=wrap;html=1;size=14;verticalAlign=top;align=left;spacingTop=-6;rounded=0;shadow=0;comic=0;labelBackgroundColor=none;strokeWidth=1;fontFamily=Verdana;fontSize=12" parent="1" vertex="1">
          <mxGeometry x="674.5" y="90" width="111" height="60" as="geometry" />
        </mxCell>
        <mxCell id="n59Rol-DrolDZZfycq20-9" value="put(messsage)" style="html=1;verticalAlign=bottom;endArrow=block;labelBackgroundColor=none;fontFamily=Verdana;fontSize=12;edgeStyle=elbowEdgeStyle;elbow=vertical;" parent="1" edge="1">
          <mxGeometry x="-0.0232" relative="1" as="geometry">
            <mxPoint x="160" y="720" as="sourcePoint" />
            <mxPoint x="870" y="720.1200000000001" as="targetPoint" />
            <mxPoint as="offset" />
            <Array as="points">
              <mxPoint x="350" y="720.12" />
              <mxPoint x="286" y="720.12" />
            </Array>
          </mxGeometry>
        </mxCell>
        <mxCell id="n59Rol-DrolDZZfycq20-8" value="outbound_queue" style="html=1;verticalAlign=bottom;endArrow=block;labelBackgroundColor=none;fontFamily=Verdana;fontSize=12;edgeStyle=elbowEdgeStyle;elbow=vertical;" parent="1" edge="1">
          <mxGeometry x="0.2622" relative="1" as="geometry">
            <mxPoint x="729.5" y="680.1200000000001" as="sourcePoint" />
            <mxPoint x="160" y="680" as="targetPoint" />
            <mxPoint as="offset" />
            <Array as="points">
              <mxPoint x="286" y="680.12" />
              <mxPoint x="350" y="680.12" />
            </Array>
          </mxGeometry>
        </mxCell>
        <mxCell id="AuvZo8N8ENO6hJsPnM0U-1" value="message items" style="html=1;verticalAlign=bottom;endArrow=classic;labelBackgroundColor=none;fontFamily=Verdana;fontSize=12;edgeStyle=elbowEdgeStyle;elbow=vertical;startArrow=none;startFill=0;endFill=1;exitX=0.033;exitY=0.115;exitDx=0;exitDy=0;exitPerimeter=0;" parent="1" source="7baba1c4bc27f4b0-10" edge="1">
          <mxGeometry relative="1" as="geometry">
            <mxPoint x="290" y="320" as="sourcePoint" />
            <mxPoint x="160.00000000000006" y="320.41999999999996" as="targetPoint" />
            <Array as="points">
              <mxPoint x="308.8" y="320" />
            </Array>
          </mxGeometry>
        </mxCell>
        <mxCell id="0W69wmVzGQClBSu6Jd0r-1" value="get_queue(mac)" style="html=1;verticalAlign=bottom;endArrow=block;labelBackgroundColor=none;fontFamily=Verdana;fontSize=12;edgeStyle=elbowEdgeStyle;elbow=vertical;" parent="1" edge="1">
          <mxGeometry x="-0.2585" relative="1" as="geometry">
            <mxPoint x="157.55" y="640.1199999999999" as="sourcePoint" />
            <mxPoint x="722.45" y="640" as="targetPoint" />
            <mxPoint as="offset" />
            <Array as="points">
              <mxPoint x="342.7" y="640.12" />
              <mxPoint x="278.7" y="640.12" />
            </Array>
          </mxGeometry>
        </mxCell>
      </root>
    </mxGraphModel>
  </diagram>
</mxfile>
